<?xml version="1.0" encoding="UTF-8"?>
<svg version="1.1" xmlns="http://www.w3.org/2000/svg" width="512" height="512">
<path d="M0 0 C1.27043152 0.00425995 2.54086304 0.0085199 3.84979248 0.01290894 C22.8057937 0.10127391 40.86953603 0.86205011 59.3125 5.5625 C60.34165527 5.80887207 61.37081055 6.05524414 62.43115234 6.30908203 C100.4564173 15.5633086 137.96031786 35.64950365 166.70703125 62.17578125 C168.79135385 64.08510825 170.90310845 65.927867 173.0625 67.75 C184.02708728 77.33837365 193.83521167 87.71729673 202.3125 99.5625 C203.27587653 100.88163104 204.23942642 102.20063547 205.203125 103.51953125 C223.96024341 129.4127073 239.7284512 158.29128507 247.3125 189.5625 C247.62574219 190.655625 247.93898438 191.74875 248.26171875 192.875 C254.50591678 214.78772468 256.82286377 236.20467716 256.70361328 258.97387695 C256.68750336 262.62423971 256.70357148 266.27349822 256.72265625 269.92382812 C256.73352722 283.04558797 256.0490408 295.65356211 253.66876221 308.56550598 C253.13210249 311.57370115 252.7221216 314.59731124 252.3125 317.625 C245.51099514 367.00675927 212.687849 426.29966009 173.3125 457.5625 C172.508125 458.573125 171.70375 459.58375 170.875 460.625 C151.54197531 483.55260717 109.36502735 509.4152375 79.71875 513.31640625 C75.32307926 513.6404659 71.14992407 513.73440039 67.328125 511.296875 C63.08482407 506.57679868 63.16266063 501.33557431 63.15478516 495.3659668 C63.14970444 494.52970261 63.14462372 493.69343842 63.13938904 492.83183289 C63.12868291 491.01322669 63.12006368 489.1946073 63.11326981 487.37598228 C63.10145739 484.48600346 63.08199315 481.5961725 63.06015015 478.70625305 C62.99865095 470.48805772 62.94472616 462.2698741 62.91113281 454.05151367 C62.89002623 449.02286431 62.85458632 443.99447935 62.81037521 438.96598244 C62.79632865 437.06010901 62.78751878 435.15418873 62.78432083 433.24826622 C62.75185564 415.73484761 61.67568158 398.50757514 49.8984375 384.5703125 C48.37399775 382.64035676 47.32408848 380.79600723 46.3125 378.5625 C49.27878354 376.91328226 51.86059877 376.15283824 55.20703125 375.6328125 C56.15497559 375.47965576 57.10291992 375.32649902 58.07958984 375.16870117 C59.0845752 375.00990479 60.08956055 374.8511084 61.125 374.6875 C86.1846507 370.4875041 109.94874253 362.64616652 129.3125 345.5625 C130.30443359 344.74652344 130.30443359 344.74652344 131.31640625 343.9140625 C150.38928116 326.88333379 158.52181261 297.06213929 161.3125 272.5625 C161.42335938 271.64082031 161.53421875 270.71914063 161.6484375 269.76953125 C164.72742316 239.60379333 160.37890056 209.47018215 140.79296875 185.40234375 C137.28480245 181.0425909 137.28480245 181.0425909 137.5 177.3125 C137.90427898 174.6058029 138.44718201 171.97060802 139.0546875 169.30078125 C143.34214276 150.08889838 141.25216975 132.66502367 135.08203125 114.0390625 C134.3125 111.5625 134.3125 111.5625 134.3125 109.5625 C110.41347445 110.96160663 87.08781554 120.58096947 68.15234375 135.3203125 C66.08401411 136.71676436 64.79937115 137.31381289 62.3125 137.5625 C59.67578125 136.890625 59.67578125 136.890625 56.625 135.8125 C23.65928887 125.24890196 -26.90474554 122.31074651 -59.27734375 136.71484375 C-62.03833969 137.68589094 -63.01687369 137.67570696 -65.6875 136.5625 C-67.11879432 135.61394992 -68.51095854 134.60544851 -69.875 133.5625 C-85.57674926 122.36985366 -108.48301995 109.98967091 -128.1875 110.4375 C-129.2290625 110.45554687 -130.270625 110.47359375 -131.34375 110.4921875 C-132.1171875 110.51539062 -132.890625 110.53859375 -133.6875 110.5625 C-139.94867335 131.6559675 -144.27979952 153.42256816 -136.33203125 174.6875 C-135.5579127 178.14053791 -135.996209 179.50059091 -137.6875 182.5625 C-139.09219664 184.16786759 -140.49789709 185.77237495 -141.91015625 187.37109375 C-156.34505673 205.16885016 -161.43846081 228.14297301 -161.15405273 250.57373047 C-161.12501107 253.0615518 -161.13352391 255.54723588 -161.14648438 258.03515625 C-161.11183959 283.81468737 -154.98393915 311.39332081 -139.6875 332.5625 C-139.11 333.36171875 -138.5325 334.1609375 -137.9375 334.984375 C-118.2611256 361.16098022 -86.40191895 371.1525062 -55.25 375.6875 C-54.26128906 375.81382812 -53.27257812 375.94015625 -52.25390625 376.0703125 C-49.73802467 376.55281034 -47.90019839 377.29660636 -45.6875 378.5625 C-46.81875641 381.23637879 -48.05842648 382.98355168 -50 385.1875 C-56.44032282 392.78670097 -59.96162772 402.85708657 -60.890625 412.71875 C-62.4184994 416.25383194 -66.19094411 417.06292693 -69.56005859 418.46899414 C-81.41491457 423.0667678 -96.08406159 424.27937529 -108.25 420.4375 C-120.33211409 413.84725595 -129.18079734 406.69471268 -136.6875 395.125 C-145.07834262 382.19366508 -154.55770345 371.84944565 -169.9375 367.5 C-175.17938642 366.41547177 -179.45241826 366.46482157 -184.6875 367.5625 C-185.3475 368.2225 -186.0075 368.8825 -186.6875 369.5625 C-183.37975028 374.96968904 -179.40853683 378.72506848 -174.3125 382.4375 C-161.73379219 391.73233879 -154.0338551 404.99117106 -148.5625 419.4375 C-146.35895468 425.22952917 -143.9742571 430.03585138 -139.6875 434.5625 C-139.12675781 435.16320312 -138.56601563 435.76390625 -137.98828125 436.3828125 C-122.40274081 451.47824161 -100.71934511 450.98113794 -80.54296875 450.765625 C-74.55683739 450.6415601 -68.63782454 450.21746981 -62.6875 449.5625 C-62.36114705 458.8774463 -62.06393544 468.19275202 -61.80322266 477.50976562 C-61.73411225 479.9775619 -61.65805096 482.44468521 -61.57568359 484.91210938 C-61.48791334 487.62893639 -61.42621736 490.34477871 -61.375 493.0625 C-61.34535156 493.82401367 -61.31570312 494.58552734 -61.28515625 495.37011719 C-61.2182743 501.5371902 -63.08379586 506.56622539 -67.15454102 511.25073242 C-70.38694024 514.01672717 -74.84618383 513.47533639 -78.890625 513.27734375 C-108.3838045 510.01354882 -139.57705833 486.43419318 -162 468.1875 C-162.68771484 467.62869141 -163.37542969 467.06988281 -164.08398438 466.49414062 C-167.89014099 463.31541399 -171.19766652 460.01182031 -174.30957031 456.14770508 C-175.79047456 454.44403546 -177.37945526 453.05275292 -179.125 451.625 C-182.30845756 448.97442555 -184.98170942 446.12303661 -187.6484375 442.95703125 C-189.1157494 441.23392359 -190.62676024 439.54768413 -192.1640625 437.88671875 C-227.63755272 399.06501349 -248.30171436 347.25369667 -254.6875 295.5625 C-254.77442108 294.88906052 -254.86134216 294.21562103 -254.95089722 293.52177429 C-255.64423786 287.82329552 -255.8767294 282.19450017 -255.92578125 276.45703125 C-255.9355751 275.50753601 -255.94536896 274.55804077 -255.95545959 273.57977295 C-256.2035174 243.25652022 -254.2521436 214.84488184 -245.6875 185.5625 C-245.43129883 184.67836426 -245.17509766 183.79422852 -244.91113281 182.88330078 C-235.18491514 150.02528187 -218.1323331 121.71540103 -197.6875 94.5625 C-196.95015625 93.57378906 -196.2128125 92.58507812 -195.453125 91.56640625 C-184.9675062 78.12384294 -172.1386486 65.98714016 -158.6875 55.5625 C-157.59859003 54.58953878 -156.5148355 53.61076198 -155.4375 52.625 C-113.22015742 16.3100821 -54.57821719 -0.39295458 0 0 Z " fill="#FFFFFF" transform="translate(255.6875,-0.5625)"/>
</svg>
